Coordinates
version=1
nRows=10
nColumns=40
inDegrees=yes

Units are S.I. units (second, meters, Newtons, ...)
If the header above contains a line with 'inDegrees', this indicates whether rotational values are in degrees (yes) or radians (no).

endheader
time	pelvis_tilt	pelvis_list	pelvis_rotation	pelvis_tx	pelvis_ty	pelvis_tz	hip_flexion_r	hip_adduction_r	hip_rotation_r	knee_angle_r	knee_angle_r_beta	ankle_angle_r	subtalar_angle_r	mtp_angle_r	hip_flexion_l	hip_adduction_l	hip_rotation_l	knee_angle_l	knee_angle_l_beta	ankle_angle_l	subtalar_angle_l	mtp_angle_l	lumbar_extension	lumbar_bending	lumbar_rotation	arm_flex_r	arm_add_r	arm_rot_r	elbow_flex_r	pro_sup_r	wrist_flex_r	wrist_dev_r	arm_flex_l	arm_add_l	arm_rot_l	elbow_flex_l	pro_sup_l	wrist_flex_l	wrist_dev_l
      4.19000000	    -40.31422497	     -1.63708082	      9.96936134	      0.06445728	      0.65301306	     -1.15916559	     92.80607645	    -47.04363588	     -6.28417228	     72.06184518	      1.25771646	      9.21404149	     -3.69402464	      0.00000000	     95.03334156	    -30.70029382	    -12.08767012	     66.05793848	      1.15292852	      0.50413934	     10.03709811	      0.00000000	      0.00000000	      0.00000000	      0.00000000	     44.41607116	    -15.11526014	     44.41607116	     75.03789285	     44.99993108	      0.00000000	      0.00000000	     44.41607116	    -15.11526014	     44.41607116	     75.03789285	     44.99993108	      0.00000000	      0.00000000
      4.19500000	    -40.44545372	     -1.70922264	      9.95382051	      0.06409914	      0.65109088	     -1.15915778	     93.25040606	    -47.09856463	     -6.11671201	     72.39541657	      1.26353838	      9.27916373	     -3.70247445	      0.00000000	     95.49736396	    -30.80173319	    -11.91003060	     66.38605802	      1.15865529	      0.60620297	     10.09003390	      0.00000000	      0.00000000	      0.00000000	      0.00000000	     44.43179848	    -15.11023970	     44.43179848	     75.03483256	     44.99994437	      0.00000000	      0.00000000	     44.43179848	    -15.11023970	     44.43179848	     75.03483256	     44.99994437	      0.00000000	      0.00000000
      4.20000000	    -40.62141408	     -1.71570786	      9.91822358	      0.06364235	      0.64901934	     -1.15905183	     93.84913996	    -47.12230856	     -5.80631502	     72.74571774	      1.26965229	      9.29786342	     -3.78061232	      0.00000000	     95.96485769	    -30.91967848	    -11.79872971	     66.72208213	      1.16452002	      0.70387502	     10.12382676	      0.00000000	      0.00000000	      0.00000000	      0.00000000	     44.44844121	    -15.10502022	     44.44844121	     75.03177918	     44.99995600	      0.00000000	      0.00000000	     44.44844121	    -15.10502022	     44.44844121	     75.03177918	     44.99995600	      0.00000000	      0.00000000
      4.20500000	    -40.65454942	     -1.73785386	      9.88987882	      0.06343863	      0.64737844	     -1.15893323	     94.19062488	    -47.15936669	     -5.61204201	     73.06672584	      1.27525494	      9.44322459	     -3.68709013	      0.00000000	     96.26278876	    -31.06027620	    -11.70026625	     67.02704483	      1.16984262	      0.79563578	     10.19018988	      0.00000000	      0.00000000	      0.00000000	      0.00000000	     44.45625064	    -15.10259764	     44.45625064	     75.03039791	     44.99996082	      0.00000000	      0.00000000	     44.45625064	    -15.10259764	     44.45625064	     75.03039791	     44.99996082	      0.00000000	      0.00000000
      4.21000000	    -39.73198420	     -1.63609698	      9.43702226	      0.06447325	      0.64820238	     -1.15742024	     93.14285392	    -46.65217970	     -5.83933275	     73.24232266	      1.27831968	      9.44338138	     -4.17729641	      0.00000000	     95.41719240	    -31.97844824	    -11.87422317	     67.28303700	      1.17431053	      0.81998587	     10.83044435	      0.00000000	      0.00000000	      0.00000000	      0.00000000	     44.47007978	    -15.09838446	     44.47007978	     75.02809431	     44.99996787	      0.00000000	      0.00000000	     44.47007978	    -15.09838446	     44.47007978	     75.02809431	     44.99996787	      0.00000000	      0.00000000
      4.21500000	    -40.79965148	     -1.88828151	      9.87564197	      0.06300278	      0.64389302	     -1.15885248	     94.86125640	    -47.27882974	     -5.35409860	     73.71630824	      1.28659229	      9.69626610	     -3.63009556	      0.00000000	     97.05194589	    -31.27488381	    -11.36470666	     67.65569178	      1.18081458	      0.96173859	     10.33203603	      0.00000000	      0.00000000	      0.00000000	      0.00000000	     44.47993602	    -15.09542494	     44.47993602	     75.02652935	     44.99997218	      0.00000000	      0.00000000	     44.47993602	    -15.09542494	     44.47993602	     75.02652935	     44.99997218	      0.00000000	      0.00000000
      4.22000000	    -40.79568183	     -1.93137078	      9.86706497	      0.06288107	      0.64237768	     -1.15874127	     95.10710486	    -47.33676892	     -5.21494832	     74.03398396	      1.29213678	      9.89167723	     -3.49623762	      0.00000000	     97.32874080	    -31.40033587	    -11.24913979	     67.95247816	      1.18599448	      1.02164348	     10.38914634	      0.00000000	      0.00000000	      0.00000000	      0.00000000	     44.49383169	    -15.09131031	     44.49383169	     75.02442267	     44.99997743	      0.00000000	      0.00000000	     44.49383169	    -15.09131031	     44.49383169	     75.02442267	     44.99997743	      0.00000000	      0.00000000
      4.22500000	    -40.48981443	     -1.91006208	      9.65789730	      0.06322860	      0.64170853	     -1.15800245	     94.91809924	    -47.12962472	     -5.19280464	     74.29344684	      1.29666526	      9.98413438	     -3.66453301	      0.00000000	     97.20053853	    -31.86798330	    -11.25066768	     68.21740888	      1.19061839	      1.20611688	     10.83447195	      0.00000000	      0.00000000	      0.00000000	      0.00000000	     44.49980509	    -15.08956046	     44.49980509	     75.02354876	     44.99997944	      0.00000000	      0.00000000	     44.49980509	    -15.08956046	     44.49980509	     75.02354876	     44.99997944	      0.00000000	      0.00000000
      4.23000000	    -41.01088622	     -2.03265197	      9.83687255	      0.06236634	      0.63879932	     -1.15858335	     95.93587831	    -47.42217506	     -4.84194729	     74.67355894	      1.30329947	     10.06121015	     -3.50514622	      0.00000000	     98.13899393	    -31.60936491	    -10.96137125	     68.55647090	      1.19653614	      1.18272429	     10.49939629	      0.00000000	      0.00000000	      0.00000000	      0.00000000	     44.51202150	    -15.08602978	     44.51202150	     75.02183955	     44.99998301	      0.00000000	      0.00000000	     44.51202150	    -15.08602978	     44.51202150	     75.02183955	     44.99998301	      0.00000000	      0.00000000
      4.23500000	    -41.15447384	     -1.97789038	      9.80210745	      0.06205373	      0.63693215	     -1.15836894	     96.53304866	    -47.42082032	     -4.44850698	     75.01289686	      1.30922203	     10.12440163	     -3.53888054	      0.00000000	     98.48152667	    -31.74501684	    -10.95485050	     68.85008648	      1.20166070	      1.27166820	     10.55764001	      0.00000000	      0.00000000	      0.00000000	      0.00000000	     44.51924147	    -15.08395878	     44.51924147	     75.02085431	     44.99998495	      0.00000000	      0.00000000	     44.51924147	    -15.08395878	     44.51924147	     75.02085431	     44.99998495	      0.00000000	      0.00000000
